<svg width="40" height="46" viewBox="0 0 40 46" fill="none" xmlns="http://www.w3.org/2000/svg" xmlns:xlink="http://www.w3.org/1999/xlink">
<path d="M33.333,14.222C33.333,10.45 31.929,6.833 29.428,4.166C26.928,1.498 23.536,0 20,0C16.464,0 13.072,1.498 10.572,4.166C8.071,6.833 6.667,10.45 6.667,14.222C6.667,30.815 0,35.556 0,35.556L40,35.556C40,35.556 33.333,30.815 33.333,14.222Z" fill="#FFFFFF"/>
<path d="M23.845,42.222C23.454,42.896 22.893,43.455 22.218,43.843C21.544,44.232 20.779,44.437 20,44.437C19.221,44.437 18.457,44.232 17.782,43.843C17.107,43.455 16.546,42.896 16.156,42.222Z" fill="#FFFFFF"/>
</svg>
