<svg width="52" height="64" viewBox="0 0 52 64" fill="none" xmlns="http://www.w3.org/2000/svg" xmlns:xlink="http://www.w3.org/1999/xlink">
<path d="M25.333,30C24.229,30 23.333,30.895 23.333,32C23.333,33.105 24.229,34 25.333,34L25.333,30ZM48.667,32L50.081,33.414C50.862,32.633 50.862,31.367 50.081,30.586L48.667,32ZM37.252,40.586C36.471,41.367 36.471,42.633 37.252,43.414C38.034,44.195 39.3,44.195 40.081,43.414L37.252,40.586ZM40.081,20.586C39.3,19.805 38.034,19.805 37.252,20.586C36.471,21.367 36.471,22.633 37.252,23.414L40.081,20.586ZM25.333,34L48.667,34L48.667,30L25.333,30L25.333,34ZM47.253,30.586L37.252,40.586L40.081,43.414L50.081,33.414L47.253,30.586ZM50.081,30.586L40.081,20.586L37.252,23.414L47.253,33.414L50.081,30.586Z" fill="#FF0000"/>
<path d="M46.667,12C46.667,13.105 47.562,14 48.667,14C49.771,14 50.667,13.105 50.667,12L46.667,12ZM50.667,52C50.667,50.895 49.771,50 48.667,50C47.562,50 46.667,50.895 46.667,52L50.667,52ZM50.667,12L50.667,8.667L46.667,8.667L46.667,12L50.667,12ZM50.667,8.667C50.667,3.88 46.787,0 42,0L42,4C44.577,4 46.667,6.089 46.667,8.667L50.667,8.667ZM42,0L8.667,0L8.667,4L42,4L42,0ZM8.667,0C3.88,0 0,3.88 0,8.667L4,8.667C4,6.089 6.089,4 8.667,4L8.667,0ZM0,8.667L0,55.333L4,55.333L4,8.667L0,8.667ZM0,55.333C0,60.12 3.88,64 8.667,64L8.667,60C6.089,60 4,57.911 4,55.333L0,55.333ZM8.667,64L42,64L42,60L8.667,60L8.667,64ZM42,64C46.787,64 50.667,60.12 50.667,55.333L46.667,55.333C46.667,57.911 44.577,60 42,60L42,64ZM50.667,55.333L50.667,52L46.667,52L46.667,55.333L50.667,55.333Z" fill="#FF0000"/>
</svg>
