<svg width="54" height="38" viewBox="0 0 54 38" fill="none" xmlns="http://www.w3.org/2000/svg" xmlns:xlink="http://www.w3.org/1999/xlink">
<path d="M14.143,26.286C15.484,26.286 16.571,25.198 16.571,23.857C16.571,22.516 15.484,21.429 14.143,21.429C12.802,21.429 11.714,22.516 11.714,23.857C11.714,25.198 12.802,26.286 14.143,26.286Z" fill="#000000" stroke="#000000" stroke-width="2" stroke-miterlimit="3.999327" stroke-linecap="round" stroke-linejoin="round"/>
<path d="M4,11.714L4,3.457L0,3.457L0,11.714L4,11.714ZM4,3.457C4,3.757 3.757,4 3.457,4L3.457,0C1.548,0 0,1.548 0,3.457L4,3.457ZM3.457,4L49.114,4L49.114,0L3.457,0L3.457,4ZM49.114,4C48.814,4 48.571,3.757 48.571,3.457L52.571,3.457C52.571,1.548 51.024,0 49.114,0L49.114,4ZM48.571,3.457L48.571,11.714L52.571,11.714L52.571,3.457L48.571,3.457ZM0,11.714L0,34.543L4,34.543L4,11.714L0,11.714ZM0,34.543C0,36.452 1.548,38 3.457,38L3.457,34C3.757,34 4,34.243 4,34.543L0,34.543ZM3.457,38L49.114,38L49.114,34L3.457,34L3.457,38ZM49.114,38C51.024,38 52.571,36.452 52.571,34.543L48.571,34.543C48.571,34.243 48.815,34 49.114,34L49.114,38ZM52.571,34.543L52.571,11.714L48.571,11.714L48.571,34.543L52.571,34.543ZM2,13.714L50.571,13.714L50.571,9.714L2,9.714L2,13.714Z" fill="#000000"/>
</svg>
