<svg width="44" height="50" viewBox="0 0 44 50" fill="none" xmlns="http://www.w3.org/2000/svg" xmlns:xlink="http://www.w3.org/1999/xlink">
<path d="M31.428,6.166L29.97,7.532L29.97,7.532L31.428,6.166ZM12.572,6.166L14.03,7.532L14.03,7.532L12.572,6.166ZM2,37.556L0.842,35.927C0.133,36.431 -0.168,37.335 0.096,38.163C0.361,38.992 1.13,39.554 2,39.554L2,37.556ZM42,37.556L42,39.554C42.87,39.554 43.639,38.992 43.904,38.163C44.168,37.335 43.867,36.431 43.158,35.927L42,37.556ZM37.332,16.222C37.332,11.96 35.746,7.849 32.886,4.799L29.97,7.532C32.111,9.816 33.335,12.94 33.335,16.222L37.332,16.222ZM32.886,4.799C30.022,1.744 26.109,0.002 22,0.002L22,3.998C24.963,3.998 27.833,5.253 29.97,7.532L32.886,4.799ZM22,0.002C17.891,0.002 13.978,1.744 11.114,4.799L14.03,7.532C16.167,5.253 19.037,3.998 22,3.998L22,0.002ZM11.114,4.799C8.254,7.849 6.668,11.96 6.668,16.222L10.665,16.222C10.665,12.94 11.889,9.816 14.03,7.532L11.114,4.799ZM6.668,16.222C6.668,24.245 5.058,29.259 3.554,32.201C2.8,33.676 2.063,34.648 1.547,35.228C1.289,35.519 1.084,35.714 0.959,35.826C0.896,35.882 0.853,35.917 0.832,35.933C0.822,35.941 0.817,35.945 0.819,35.944C0.82,35.943 0.822,35.941 0.826,35.939C0.828,35.937 0.83,35.936 0.833,35.934C0.834,35.933 0.835,35.932 0.837,35.93C0.838,35.93 0.839,35.929 0.839,35.929C0.841,35.928 0.842,35.927 2,37.556C3.158,39.184 3.159,39.183 3.161,39.182C3.161,39.182 3.163,39.181 3.164,39.18C3.166,39.179 3.168,39.177 3.17,39.176C3.174,39.173 3.179,39.169 3.184,39.166C3.194,39.158 3.206,39.149 3.219,39.139C3.246,39.119 3.279,39.094 3.318,39.063C3.395,39.002 3.495,38.919 3.614,38.813C3.853,38.601 4.169,38.295 4.536,37.883C5.27,37.056 6.2,35.805 7.113,34.021C8.942,30.445 10.665,24.792 10.665,16.222L6.668,16.222ZM2,39.554L42,39.554L42,35.557L2,35.557L2,39.554ZM42,37.556C43.158,35.927 43.159,35.928 43.161,35.929C43.161,35.929 43.162,35.93 43.163,35.93C43.165,35.932 43.166,35.933 43.167,35.934C43.17,35.936 43.172,35.937 43.174,35.939C43.178,35.941 43.18,35.943 43.181,35.944C43.183,35.945 43.178,35.941 43.168,35.933C43.147,35.917 43.104,35.882 43.041,35.826C42.916,35.714 42.711,35.519 42.453,35.228C41.937,34.648 41.2,33.676 40.446,32.201C38.942,29.259 37.332,24.245 37.332,16.222L33.335,16.222C33.335,24.792 35.058,30.445 36.887,34.021C37.8,35.805 38.73,37.056 39.464,37.883C39.831,38.295 40.147,38.601 40.386,38.813C40.505,38.919 40.605,39.002 40.682,39.063C40.721,39.094 40.754,39.119 40.781,39.139C40.794,39.149 40.806,39.158 40.816,39.166C40.821,39.169 40.826,39.173 40.83,39.176C40.832,39.177 40.834,39.179 40.836,39.18C40.837,39.181 40.839,39.182 40.839,39.182C40.841,39.183 40.842,39.184 42,37.556Z" fill="#000000"/>
<path d="M27.573,45.225C28.127,44.27 27.802,43.047 26.847,42.494C25.892,41.94 24.67,42.265 24.116,43.22L27.573,45.225ZM24.218,45.843L23.221,44.111L23.221,44.112L24.218,45.843ZM19.782,45.843L20.779,44.112L20.779,44.111L19.782,45.843ZM19.884,43.22C19.331,42.265 18.108,41.94 17.153,42.494C16.198,43.047 15.873,44.27 16.427,45.225L19.884,43.22ZM24.116,43.22C23.901,43.59 23.592,43.898 23.221,44.111L25.215,47.575C26.194,47.012 27.007,46.201 27.573,45.225L24.116,43.22ZM23.221,44.112C22.849,44.326 22.428,44.438 22,44.438L22,48.435C23.129,48.435 24.238,48.138 25.216,47.575L23.221,44.112ZM22,44.438C21.572,44.438 21.151,44.326 20.779,44.112L18.784,47.575C19.762,48.138 20.871,48.435 22,48.435L22,44.438ZM20.779,44.111C20.408,43.898 20.099,43.59 19.884,43.22L16.427,45.225C16.993,46.201 17.806,47.012 18.785,47.575L20.779,44.111Z" fill="#000000"/>
</svg>
