<svg width="42" height="52" viewBox="0 0 42 52" fill="none" xmlns="http://www.w3.org/2000/svg" xmlns:xlink="http://www.w3.org/1999/xlink">
<path d="M4,47.714L1,47.714C1,48.812 1.599,49.822 2.562,50.347C3.526,50.873 4.699,50.831 5.622,50.238L4,47.714ZM38,47.714L36.378,50.238C37.301,50.831 38.474,50.873 39.438,50.347C40.401,49.822 41,48.812 41,47.714L38,47.714ZM23.627,38.474L22.004,40.998L22.004,40.998L23.627,38.474ZM18.373,38.474L19.996,40.998L19.996,40.998L18.373,38.474ZM7,47.714L7,8.857L1,8.857L1,47.714L7,47.714ZM7,8.857C7,7.831 7.831,7 8.857,7L8.857,1C4.518,1 1,4.518 1,8.857L7,8.857ZM8.857,7L33.143,7L33.143,1L8.857,1L8.857,7ZM33.143,7C34.169,7 35,7.831 35,8.857L41,8.857C41,4.518 37.482,1 33.143,1L33.143,7ZM35,8.857L35,47.714L41,47.714L41,8.857L35,8.857ZM39.622,45.191L25.249,35.951L22.004,40.998L36.378,50.238L39.622,45.191ZM25.249,35.951C22.661,34.287 19.339,34.287 16.751,35.951L19.996,40.998C20.608,40.604 21.392,40.604 22.004,40.998L25.249,35.951ZM16.751,35.951L2.378,45.191L5.622,50.238L19.996,40.998L16.751,35.951Z" fill="#000000"/>
</svg>
