<svg width="20" height="36" viewBox="0 0 20 36" fill="none" xmlns="http://www.w3.org/2000/svg" xmlns:xlink="http://www.w3.org/1999/xlink">
<path d="M3.414,0.586C2.633,-0.195 1.367,-0.195 0.586,0.586C-0.195,1.367 -0.195,2.633 0.586,3.414L3.414,0.586ZM18,18L19.414,19.414C20.195,18.633 20.195,17.367 19.414,16.586L18,18ZM0.586,32.586C-0.195,33.367 -0.195,34.633 0.586,35.414C1.367,36.195 2.633,36.195 3.414,35.414L0.586,32.586ZM0.586,3.414L16.586,19.414L19.414,16.586L3.414,0.586L0.586,3.414ZM16.586,16.586L0.586,32.586L3.414,35.414L19.414,19.414L16.586,16.586Z" fill="#FFFFFF"/>
</svg>
