<svg width="22" height="22" viewBox="0 0 22 22" fill="none" xmlns="http://www.w3.org/2000/svg" xmlns:xlink="http://www.w3.org/1999/xlink">
<path d="M7.929,7.162L8.208,9.083C8.838,8.992 9.384,8.596 9.667,8.026L7.929,7.162ZM10.266,2.453L12.005,3.317L12.005,3.316L10.266,2.453ZM11.734,2.453L9.995,3.316L9.995,3.317L11.734,2.453ZM14.071,7.162L12.333,8.026C12.616,8.596 13.162,8.992 13.792,9.083L14.071,7.162ZM19.299,7.922L19.02,9.843L19.02,9.843L19.299,7.922ZM19.752,9.31L21.102,10.704L21.102,10.704L19.752,9.31ZM15.97,12.973L14.619,11.578C14.158,12.025 13.948,12.67 14.057,13.303L15.97,12.973ZM16.862,18.147L14.949,18.477L14.949,18.477L16.862,18.147ZM15.675,19.005L14.776,20.725L14.776,20.725L15.675,19.005ZM11,16.56L11.899,14.84C11.336,14.545 10.664,14.545 10.101,14.84L11,16.56ZM6.325,19.005L5.426,17.285L5.425,17.285L6.325,19.005ZM5.138,18.147L3.225,17.817L3.225,17.817L5.138,18.147ZM6.03,12.973L7.943,13.303C8.052,12.67 7.842,12.025 7.381,11.578L6.03,12.973ZM2.248,9.31L3.599,7.915L3.599,7.915L2.248,9.31ZM2.701,7.922L2.98,9.843L2.98,9.843L2.701,7.922ZM9.667,8.026L12.005,3.317L8.528,1.59L6.19,6.299L9.667,8.026ZM12.005,3.316C11.592,4.149 10.408,4.149 9.995,3.316L13.472,1.59C12.459,-0.452 9.541,-0.452 8.528,1.59L12.005,3.316ZM9.995,3.317L12.333,8.026L15.81,6.299L13.472,1.59L9.995,3.317ZM13.792,9.083L19.02,9.843L19.579,6.001L14.351,5.241L13.792,9.083ZM19.02,9.843C18.112,9.711 17.718,8.577 18.401,7.915L21.102,10.704C22.757,9.102 21.829,6.328 19.578,6.001L19.02,9.843ZM18.401,7.915L14.619,11.578L17.32,14.367L21.102,10.704L18.401,7.915ZM14.057,13.303L14.949,18.477L18.775,17.817L17.882,12.643L14.057,13.303ZM14.949,18.477C14.786,17.532 15.773,16.865 16.574,17.285L14.776,20.725C16.778,21.772 19.167,20.091 18.775,17.817L14.949,18.477ZM16.574,17.285L11.899,14.84L10.101,18.28L14.776,20.725L16.574,17.285ZM10.101,14.84L5.426,17.285L7.224,20.725L11.899,18.28L10.101,14.84ZM5.425,17.285C6.227,16.865 7.214,17.532 7.051,18.477L3.225,17.817C2.833,20.091 5.222,21.772 7.224,20.725L5.425,17.285ZM7.051,18.477L7.943,13.303L4.118,12.643L3.225,17.817L7.051,18.477ZM7.381,11.578L3.599,7.915L0.898,10.704L4.68,14.367L7.381,11.578ZM3.599,7.915C4.282,8.577 3.888,9.711 2.98,9.843L2.422,6.001C0.172,6.328 -0.757,9.102 0.898,10.704L3.599,7.915ZM2.98,9.843L8.208,9.083L7.649,5.241L2.422,6.001L2.98,9.843Z" fill="#000000"/>
</svg>
