<svg width="60" height="74" viewBox="0 0 60 74" fill="none" xmlns="http://www.w3.org/2000/svg" xmlns:xlink="http://www.w3.org/1999/xlink">
<path d="M6,68L0.624,68C0.624,69.967 1.698,71.776 3.424,72.719C5.15,73.661 7.253,73.586 8.907,72.522L6,68ZM54.222,68L51.315,72.522C52.969,73.586 55.072,73.661 56.798,72.719C58.525,71.776 59.598,69.967 59.598,68L54.222,68ZM33.836,54.895L30.929,59.417L30.929,59.417L33.836,54.895ZM26.386,54.895L29.293,59.417L29.294,59.417L26.386,54.895ZM11.376,68L11.376,12.889L0.624,12.889L0.624,68L11.376,68ZM11.376,12.889C11.376,12.053 12.053,11.376 12.889,11.376L12.889,0.624C6.115,0.624 0.624,6.115 0.624,12.889L11.376,12.889ZM12.889,11.376L47.333,11.376L47.333,0.624L12.889,0.624L12.889,11.376ZM47.333,11.376C48.169,11.376 48.846,12.053 48.846,12.889L59.598,12.889C59.598,6.115 54.107,0.624 47.333,0.624L47.333,11.376ZM48.846,12.889L48.846,68L59.598,68L59.598,12.889L48.846,12.889ZM57.129,63.478L36.743,50.373L30.929,59.417L51.315,72.522L57.129,63.478ZM36.744,50.373C32.704,47.775 27.519,47.775 23.478,50.373L29.294,59.417C29.792,59.097 30.431,59.097 30.929,59.417L36.744,50.373ZM23.479,50.373L3.093,63.478L8.907,72.522L29.293,59.417L23.479,50.373Z" fill="#000000"/>
</svg>
