<svg width="44" height="44" viewBox="0 0 44 44" fill="none" xmlns="http://www.w3.org/2000/svg" xmlns:xlink="http://www.w3.org/1999/xlink">
<path d="M29.36,2L31.075,0.285C30.62,-0.17 30.003,-0.426 29.36,-0.426C28.717,-0.426 28.1,-0.17 27.645,0.285L29.36,2ZM40,12.64L41.715,14.355C42.663,13.408 42.663,11.872 41.715,10.925L40,12.64ZM2.63,28.73L4.345,30.446L4.345,30.446L2.63,28.73ZM2,40L-0.426,40C-0.426,41.34 0.66,42.426 2,42.426L2,40ZM13.27,39.37L11.554,37.655L11.554,37.655L13.27,39.37ZM24.995,9.795L31.075,3.715L27.645,0.285L21.565,6.365L24.995,9.795ZM27.645,3.715L38.285,14.355L41.715,10.925L31.075,0.285L27.645,3.715ZM38.285,10.925L32.205,17.005L35.635,20.435L41.715,14.355L38.285,10.925ZM21.565,6.365L0.914,27.015L4.345,30.446L24.995,9.795L21.565,6.365ZM0.914,27.015C0.056,27.873 -0.426,29.037 -0.426,30.25L4.426,30.25C4.426,30.324 4.397,30.394 4.345,30.446L0.914,27.015ZM-0.426,30.25L-0.426,40L4.426,40L4.426,30.25L-0.426,30.25ZM2,42.426L11.75,42.426L11.75,37.574L2,37.574L2,42.426ZM11.75,42.426C12.963,42.426 14.127,41.944 14.985,41.085L11.554,37.655C11.606,37.603 11.677,37.574 11.75,37.574L11.75,42.426ZM14.985,41.086L35.635,20.435L32.205,17.005L11.554,37.655L14.985,41.086ZM21.565,9.795L32.205,20.435L35.635,17.005L24.995,6.365L21.565,9.795Z" fill="#FFFFFF"/>
</svg>
