<svg width="42" height="50" viewBox="0 0 42 50" fill="none" xmlns="http://www.w3.org/2000/svg" xmlns:xlink="http://www.w3.org/1999/xlink">
<path d="M4,45.714L1,45.714C1,46.812 1.599,47.822 2.562,48.347C3.526,48.873 4.699,48.831 5.622,48.238L4,45.714ZM38,45.714L36.378,48.238C37.301,48.831 38.474,48.873 39.438,48.347C40.401,47.822 41,46.812 41,45.714L38,45.714ZM23.627,36.474L22.004,38.998L22.004,38.998L23.627,36.474ZM18.373,36.474L19.996,38.998L19.996,38.998L18.373,36.474ZM7,45.714L7,6.857L1,6.857L1,45.714L7,45.714ZM7,6.857C7,5.831 7.831,5 8.857,5L8.857,-1C4.518,-1 1,2.518 1,6.857L7,6.857ZM8.857,5L33.143,5L33.143,-1L8.857,-1L8.857,5ZM33.143,5C34.169,5 35,5.831 35,6.857L41,6.857C41,2.518 37.482,-1 33.143,-1L33.143,5ZM35,6.857L35,45.714L41,45.714L41,6.857L35,6.857ZM39.622,43.191L25.249,33.951L22.004,38.998L36.378,48.238L39.622,43.191ZM25.249,33.951C22.661,32.287 19.339,32.287 16.751,33.951L19.996,38.998C20.608,38.604 21.392,38.604 22.004,38.998L25.249,33.951ZM16.751,33.951L2.378,43.191L5.622,48.238L19.996,38.998L16.751,33.951Z" fill="#FFFFFF"/>
</svg>
