<svg width="48" height="46" viewBox="0 0 48 46" fill="none" xmlns="http://www.w3.org/2000/svg" xmlns:xlink="http://www.w3.org/1999/xlink">
<path d="M17.175,15.472L17.705,19.121C18.903,18.947 19.939,18.196 20.477,17.112L17.175,15.472ZM22.37,5.008L25.672,6.647L25.673,6.647L22.37,5.008ZM25.63,5.008L22.327,6.647L22.328,6.647L25.63,5.008ZM30.825,15.472L27.523,17.112C28.061,18.196 29.097,18.947 30.295,19.121L30.825,15.472ZM42.443,17.16L41.913,20.809L41.913,20.809L42.443,17.16ZM43.449,20.244L46.014,22.893L46.014,22.892L43.449,20.244ZM35.043,28.384L32.478,25.735C31.603,26.583 31.203,27.809 31.41,29.01L35.043,28.384ZM37.027,39.883L33.393,40.51L33.394,40.51L37.027,39.883ZM34.389,41.788L32.681,45.056L32.681,45.056L34.389,41.788ZM24,36.356L25.709,33.089C24.638,32.529 23.362,32.529 22.292,33.089L24,36.356ZM13.611,41.788L11.902,38.521L11.902,38.521L13.611,41.788ZM10.973,39.883L7.339,39.256L7.339,39.256L10.973,39.883ZM12.957,28.384L16.59,29.01C16.797,27.809 16.397,26.583 15.522,25.735L12.957,28.384ZM4.552,20.244L7.117,17.595L7.117,17.595L4.552,20.244ZM5.557,17.16L6.087,20.809L6.087,20.809L5.557,17.16ZM20.477,17.112L25.672,6.647L19.067,3.368L13.872,13.832L20.477,17.112ZM25.673,6.647C24.984,8.034 23.016,8.034 22.327,6.647L28.933,3.368C26.911,-0.706 21.089,-0.706 19.067,3.368L25.673,6.647ZM22.328,6.647L27.523,17.112L34.128,13.832L28.933,3.368L22.328,6.647ZM30.295,19.121L41.913,20.809L42.973,13.511L31.356,11.823L30.295,19.121ZM41.913,20.809C40.403,20.59 39.742,18.701 40.883,17.595L46.014,22.892C49.314,19.697 47.464,14.164 42.973,13.511L41.913,20.809ZM40.884,17.595L32.478,25.735L37.609,31.032L46.014,22.893L40.884,17.595ZM31.41,29.01L33.393,40.51L40.661,39.256L38.677,27.757L31.41,29.01ZM33.394,40.51C33.121,38.929 34.768,37.826 36.097,38.521L32.681,45.056C36.677,47.145 41.443,43.79 40.661,39.256L33.394,40.51ZM36.098,38.521L25.709,33.089L22.292,39.624L32.681,45.056L36.098,38.521ZM22.292,33.089L11.902,38.521L15.319,45.056L25.709,39.624L22.292,33.089ZM11.902,38.521C13.232,37.826 14.879,38.929 14.606,40.51L7.339,39.256C6.557,43.79 11.323,47.146 15.319,45.056L11.902,38.521ZM14.606,40.51L16.59,29.01L9.323,27.757L7.339,39.256L14.606,40.51ZM15.522,25.735L7.117,17.595L1.986,22.893L10.391,31.032L15.522,25.735ZM7.117,17.595C8.259,18.701 7.596,20.59 6.087,20.809L5.027,13.511C0.536,14.164 -1.314,19.697 1.987,22.893L7.117,17.595ZM6.087,20.809L17.705,19.121L16.644,11.823L5.027,13.511L6.087,20.809Z" fill="#EDF200"/>
</svg>
