<svg width="40" height="40" viewBox="0 0 40 40" fill="none" xmlns="http://www.w3.org/2000/svg" xmlns:xlink="http://www.w3.org/1999/xlink">
<path d="M20,0C18.6,0 17.5,1.1 17.5,2.5C17.5,3.9 18.6,5 20,5C21.4,5 22.5,3.9 22.5,2.5C22.5,1.1 21.4,0 20,0ZM7.5,5C6.1,5 5,6.1 5,7.5C5,8.9 6.1,10 7.5,10C8.9,10 10,8.9 10,7.5C10,6.1 8.9,5 7.5,5ZM32.5,5C31.1,5 30,6.1 30,7.5C30,8.9 31.1,10 32.5,10C33.9,10 35,8.9 35,7.5C35,6.1 33.9,5 32.5,5ZM20,10C14.5,10 10,14.5 10,20C10,25.5 14.5,30 20,30C25.5,30 30,25.5 30,20C30,14.5 25.5,10 20,10ZM2.5,17.5C1.1,17.5 0,18.6 0,20C0,21.4 1.1,22.5 2.5,22.5C3.9,22.5 5,21.4 5,20C5,18.6 3.9,17.5 2.5,17.5ZM37.5,17.5C36.1,17.5 35,18.6 35,20C35,21.4 36.1,22.5 37.5,22.5C38.9,22.5 40,21.4 40,20C40,18.6 38.9,17.5 37.5,17.5ZM7.5,30C6.1,30 5,31.1 5,32.5C5,33.9 6.1,35 7.5,35C8.9,35 10,33.9 10,32.5C10,31.1 8.9,30 7.5,30ZM32.5,30C31.1,30 30,31.1 30,32.5C30,33.9 31.1,35 32.5,35C33.9,35 35,33.9 35,32.5C35,31.1 33.9,30 32.5,30ZM20,35C18.6,35 17.5,36.1 17.5,37.5C17.5,38.9 18.6,40 20,40C21.4,40 22.5,38.9 22.5,37.5C22.5,36.1 21.4,35 20,35Z" fill="#FFB800"/>
</svg>
